<?xml version="1.0" standalone="no"?>
<!DOCTYPE svg PUBLIC "-//W3C//DTD SVG 20010904//EN"
 "http://www.w3.org/TR/2001/REC-SVG-20010904/DTD/svg10.dtd">
<svg version="1.0" xmlns="http://www.w3.org/2000/svg"
 width="438.000000pt" height="486.000000pt" viewBox="0 0 438.000000 486.000000"
 preserveAspectRatio="xMidYMid meet">

<g transform="translate(0.000000,486.000000) scale(0.100000,-0.100000)"
fill="#000000" stroke="none">
<path d="M0 2430 l0 -2430 2190 0 2190 0 0 2430 0 2430 -2190 0 -2190 0 0
-2430z m2402 2310 c139 -70 203 -107 195 -113 -8 -6 -6 -7 6 -3 22 7 88 -24
80 -37 -3 -6 -1 -7 5 -3 11 7 131 -49 143 -67 3 -5 10 -8 15 -7 18 3 144 -64
144 -77 0 -7 5 -13 11 -13 5 0 7 5 3 12 -8 12 59 -25 87 -49 8 -7 23 -13 31
-13 27 0 48 -12 41 -23 -3 -5 -1 -7 5 -3 14 9 83 -25 75 -37 -3 -6 -1 -7 5 -3
6 4 69 -22 139 -57 71 -35 189 -95 263 -132 74 -37 141 -75 148 -84 7 -9 11
-11 8 -4 -4 8 5 6 26 -4 78 -36 118 -58 118 -66 0 -4 11 -12 25 -17 30 -11 34
-35 5 -27 -12 3 -18 1 -14 -5 3 -5 15 -7 26 -5 30 8 46 -2 41 -24 -4 -15 -14
-19 -51 -19 -41 0 -45 -2 -32 -15 8 -8 42 -31 75 -50 l60 -36 74 32 73 32 64
-31 64 -32 0 -165 0 -165 -42 -21 c-96 -48 -98 -51 -98 -139 l0 -78 -75 -36
c-41 -20 -82 -36 -90 -36 -8 0 -15 -4 -15 -9 0 -5 -14 -14 -31 -20 -39 -13
-49 -14 -29 -1 12 8 12 10 1 10 -11 0 -13 12 -8 56 7 64 -4 74 -56 53 -17 -8
-35 -13 -39 -11 -5 1 -8 -2 -8 -6 0 -5 -11 -14 -25 -20 -24 -11 -25 -16 -25
-97 l0 -85 -62 -31 c-35 -17 -66 -37 -70 -43 -4 -6 -8 -45 -8 -86 l0 -76 -55
-27 c-31 -15 -59 -27 -63 -27 -4 0 -6 28 -4 62 4 92 -2 96 -81 57 l-67 -33 0
-82 c0 -77 -1 -81 -25 -92 -14 -7 -31 -12 -36 -12 -6 0 -17 -7 -25 -15 -9 -8
-19 -15 -24 -15 -4 0 -11 72 -15 159 l-8 160 -68 -35 -69 -34 0 -84 0 -83 -59
-32 c-32 -17 -62 -31 -65 -31 -3 0 -6 72 -6 161 l0 160 -22 -7 c-13 -3 -44
-17 -70 -30 l-48 -24 -1 -98 c-1 -53 0 -165 1 -249 l2 -152 -61 -30 c-33 -17
-63 -31 -66 -31 -3 0 -5 34 -5 75 0 52 -4 75 -12 75 -7 0 -70 -29 -140 -65
l-128 -66 0 81 c0 44 -3 80 -7 80 -14 0 -112 -51 -119 -62 -4 -6 -6 -38 -5
-70 1 -32 -1 -68 -4 -79 -5 -16 -109 -79 -130 -79 -3 0 -5 37 -5 83 l0 83 -65
32 c-36 18 -68 32 -70 32 -3 0 -5 -31 -5 -69 0 -39 -4 -72 -8 -75 -5 -3 -35 9
-68 26 -32 16 -80 41 -105 54 -26 13 -51 24 -57 24 -14 0 -20 36 -17 100 1 30
-3 61 -8 68 -15 19 -126 74 -136 68 -5 -3 -9 -23 -9 -43 0 -21 -1 -55 -1 -76
l-1 -37 -60 30 c-33 16 -62 30 -64 30 -3 0 -6 -36 -8 -79 l-3 -79 -62 31 -63
30 0 76 c0 42 -4 81 -8 87 -10 16 -128 74 -136 67 -3 -4 -6 -37 -6 -75 0 -37
-3 -68 -7 -68 -10 0 -113 54 -113 60 -2 29 -7 183 -9 250 l-2 85 -62 28 c-34
15 -65 27 -69 27 -5 0 -8 -34 -8 -75 0 -45 -4 -75 -10 -75 -6 0 -35 12 -65 28
l-54 27 -1 167 0 168 -60 30 c-33 16 -64 30 -70 30 -6 0 -10 -84 -10 -245 l0
-245 -65 32 -64 32 -3 85 -3 86 -65 32 c-36 18 -96 48 -135 66 l-70 33 -3 87
-3 87 -59 30 c-33 17 -62 30 -65 30 -3 0 -5 -36 -5 -80 0 -44 -3 -80 -7 -80
-5 0 -35 15 -68 33 l-60 32 2 245 1 245 42 22 c22 13 38 17 34 10 -4 -6 2 -2
14 9 11 12 119 70 239 129 300 148 292 145 309 138 9 -3 14 0 12 7 -3 13 295
169 324 170 9 0 18 5 20 12 2 6 21 11 41 11 26 0 34 4 27 12 -7 8 18 25 85 58
l93 48 60 -31 59 -32 52 27 c29 14 49 30 45 36 -10 17 -93 49 -112 43 -27 -9
73 46 189 104 l106 53 70 -37 71 -37 56 29 c31 15 56 31 56 34 0 3 -27 20 -61
39 -33 18 -58 35 -56 38 8 7 392 200 397 199 3 -1 98 -48 212 -106z m-992
-350 c0 -5 -2 -10 -4 -10 -3 0 -8 5 -11 10 -3 6 -1 10 4 10 6 0 11 -4 11 -10z
m47 -16 c-3 -3 -12 -4 -19 -1 -8 3 -5 6 6 6 11 1 17 -2 13 -5z m2613 -475 c0
-14 -17 -10 -23 5 -4 10 -1 13 9 9 7 -3 14 -9 14 -14z m290 -1061 l0 -83 -56
-25 c-31 -14 -59 -25 -62 -25 -3 0 -6 35 -6 78 l-1 77 55 29 c30 16 58 30 63
30 4 1 7 -36 7 -81z m-3867 12 l57 -25 0 -83 0 -83 -62 33 -63 33 -3 78 c-2
44 1 77 6 75 5 -1 34 -14 65 -28z m-408 -127 l55 -27 0 -141 c0 -77 3 -150 6
-162 8 -29 -2 -29 -71 2 l-55 26 0 164 c0 91 2 165 5 165 2 0 29 -12 60 -27z
m3735 -323 l0 -79 -47 -23 c-27 -13 -77 -38 -113 -57 -36 -18 -72 -37 -81 -41
-9 -5 -18 -7 -20 -5 -2 2 -3 39 -1 83 l3 79 122 61 c67 33 125 61 130 61 4 1
7 -35 7 -79z m-3185 43 l55 -27 0 -77 0 -76 -42 20 c-24 12 -45 23 -48 26 -3
3 -13 7 -22 9 -16 3 -18 -7 -18 -78 0 -44 -3 -80 -7 -80 -5 0 -64 31 -133 68
l-125 67 -3 78 c-2 44 1 77 5 75 4 -2 62 -29 127 -61 66 -32 124 -56 130 -54
5 2 8 33 7 70 -1 42 2 67 8 67 6 0 35 -12 66 -27z m595 -374 c0 -44 -2 -79 -3
-79 -2 0 -60 29 -128 64 l-124 65 -3 81 -3 81 131 -67 130 -67 0 -78z m2180
128 c0 -77 -2 -85 -22 -95 -13 -6 -63 -29 -113 -53 -49 -23 -98 -46 -107 -51
-16 -8 -18 -2 -18 71 l0 80 113 56 c61 32 116 61 122 66 20 20 25 6 25 -74z
m-684 -73 c-4 -15 -25 -31 -62 -48 -31 -14 -58 -26 -60 -26 -2 0 -4 36 -4 80
l0 81 63 28 62 28 3 -61 c2 -33 1 -70 -2 -82z m1364 -84 c0 -38 5 -72 11 -75
6 -4 36 7 68 23 l57 31 -2 -27 c-1 -15 -2 -50 -3 -78 -1 -50 -2 -51 -50 -77
-27 -15 -54 -27 -60 -27 -7 0 -11 25 -11 70 0 52 -3 70 -13 70 -8 0 -67 -27
-131 -60 -65 -33 -120 -60 -122 -60 -3 0 -4 37 -2 81 l3 82 120 61 c66 34 123
61 128 59 4 -3 7 -35 7 -73z m-2450 -178 l0 -82 -130 65 -130 65 0 73 c0 41 3
76 6 80 4 3 62 -22 130 -56 l124 -62 0 -83z m1220 60 c0 -53 -4 -73 -17 -84
-23 -20 -90 -48 -97 -40 -3 3 -6 36 -6 73 l0 68 43 24 c70 41 77 38 77 -41z
m-670 -164 c0 -50 4 -78 11 -78 6 0 35 13 65 30 l54 29 0 -168 0 -168 -60 -30
c-33 -16 -62 -27 -65 -25 -3 3 -5 78 -5 167 l0 161 -65 32 -65 32 0 80 0 80
65 -32 65 -32 0 -78z m-1500 -87 l5 -84 55 -29 c30 -16 61 -37 68 -46 11 -15
18 -152 7 -152 -2 0 -34 14 -70 32 l-65 32 0 83 0 82 -135 68 -135 68 0 82 0
83 133 -68 132 -67 5 -84z m2048 -16 l-3 -40 -110 -56 c-167 -85 -156 -86
-153 8 l3 78 125 64 125 63 8 -38 c4 -22 7 -57 5 -79z m1622 15 l0 -80 -32
-14 c-18 -8 -44 -22 -58 -30 -14 -8 -32 -17 -40 -20 -8 -3 -22 -10 -30 -15 -8
-5 -34 -18 -57 -30 l-43 -22 0 84 0 85 123 60 c67 33 125 61 130 61 4 1 7 -35
7 -79z m-680 -8 l0 -77 -125 -63 c-69 -34 -127 -62 -130 -62 -3 0 -5 36 -5 80
l0 80 118 59 c64 33 123 60 130 60 8 1 12 -21 12 -77z m-2778 -16 l63 -33 3
-68 c2 -37 0 -71 -5 -75 -4 -4 -36 6 -70 22 l-63 30 0 79 c0 44 2 79 4 79 2 0
33 -15 68 -34z m608 -378 c0 -45 -4 -78 -10 -78 -5 0 -66 28 -135 62 l-125 63
0 82 0 83 135 -67 135 -68 0 -77z m1626 57 c-4 -11 -104 -65 -120 -65 -4 0 -6
35 -4 77 l3 78 60 30 60 31 3 -69 c2 -39 1 -75 -2 -82z m959 45 l0 -74 -65
-33 c-35 -18 -64 -33 -65 -33 -2 0 5 163 7 165 14 12 105 53 113 51 6 -1 10
-36 10 -76z m-2300 -3 l120 -62 1 -73 c1 -40 -1 -74 -5 -76 -3 -2 -53 18 -110
45 -57 27 -106 49 -109 49 -3 0 -14 7 -24 17 -14 13 -18 31 -18 90 0 52 4 73
13 73 6 -1 66 -29 132 -63z m-835 -159 c0 -44 -4 -78 -10 -78 -5 0 -34 12 -65
27 l-55 27 0 83 0 83 65 -32 65 -32 0 -78z m1909 42 c0 -30 -3 -60 -7 -66 -10
-16 -245 -133 -255 -127 -4 3 -6 37 -3 76 3 40 5 75 6 79 0 7 42 23 49 19 2
-2 7 2 10 7 3 5 47 30 96 55 103 51 103 51 104 -43z m129 -92 l-3 -81 -53 -29
c-29 -16 -57 -26 -63 -23 -5 4 -9 39 -9 79 l0 73 58 31 c31 17 61 31 65 31 4
1 7 -36 5 -81z m680 5 l-3 -78 -55 -27 c-30 -16 -55 -28 -57 -28 -2 0 -3 36
-3 80 l0 80 48 24 c72 38 73 37 70 -51z m-3165 12 l37 -17 0 -79 c0 -44 -2
-79 -5 -79 -3 0 -22 8 -43 19 -83 41 -82 42 -82 -43 0 -42 -2 -76 -5 -76 -3 0
-32 14 -65 30 l-60 30 0 80 0 79 61 -30 c33 -17 63 -28 66 -25 4 3 5 40 4 81
l-2 76 28 -14 c15 -8 45 -22 66 -32z m2627 -113 l0 -79 -57 -29 c-32 -16 -62
-29 -67 -29 -6 0 -10 80 -7 145 1 9 106 68 124 70 4 0 7 -35 7 -78z m-1155 42
c33 -16 56 -35 59 -48 8 -29 8 -136 0 -136 -4 0 -33 15 -66 33 l-59 32 3 72
c2 40 4 73 6 73 2 0 27 -12 57 -26z m-533 -231 l58 -27 0 -78 c0 -43 -2 -78
-5 -78 -3 0 -32 14 -65 30 l-60 30 0 75 c0 41 3 75 7 75 4 0 33 -12 65 -27z
m-551 -60 l57 -28 4 -65 c2 -36 1 -70 -2 -77 -4 -8 -24 -3 -68 19 l-62 31 0
73 c0 41 3 74 7 74 3 0 32 -12 64 -27z m1158 -78 l131 -65 0 -80 c0 -44 -2
-80 -5 -80 -3 0 -59 27 -125 60 -66 33 -124 60 -130 60 -6 0 -10 -29 -10 -70
0 -38 -3 -70 -7 -70 -5 0 -36 12 -70 27 l-62 28 -1 72 c0 39 4 74 10 78 5 3
33 -8 63 -25 29 -16 57 -30 60 -30 4 0 7 36 7 80 0 44 2 80 4 80 3 0 64 -29
135 -65z m1081 -174 l0 -69 -45 -26 c-83 -46 -82 -46 -80 39 0 41 3 76 6 77
16 12 96 47 107 47 8 1 12 -19 12 -68z m-410 -35 l0 -85 -55 -26 c-31 -14 -59
-24 -63 -21 -4 2 -5 38 -2 80 l5 77 55 28 c30 16 56 30 58 30 1 1 2 -37 2 -83z
m-132 -256 l-3 -55 -55 -27 c-30 -16 -58 -28 -62 -28 -4 0 -8 33 -8 74 l0 75
58 29 c56 29 57 29 65 9 4 -12 7 -46 5 -77z"/>
<path d="M2685 4404 c-48 -23 -49 -24 -18 -24 17 0 34 -6 36 -12 4 -10 6 -10
6 0 1 7 16 12 41 12 33 0 40 -3 40 -20 0 -14 7 -20 23 -20 16 0 18 3 9 9 -11
6 -10 10 4 15 15 6 9 12 -31 36 -28 16 -52 29 -55 29 -3 0 -27 -11 -55 -25z"/>
<path d="M2928 4380 c12 -5 22 -16 22 -25 0 -8 9 -15 20 -15 11 0 20 3 20 6 0
14 -44 44 -64 43 -20 0 -20 -1 2 -9z"/>
<path d="M1723 4342 c-29 -15 -53 -30 -53 -33 0 -7 101 -59 114 -59 5 0 33 12
63 26 48 24 52 28 36 39 -15 10 -105 56 -107 55 -1 -1 -25 -13 -53 -28z"/>
<path d="M2030 4350 c-12 -8 -9 -10 13 -10 15 0 27 5 27 10 0 13 -20 13 -40 0z"/>
<path d="M2700 4338 c0 -4 14 -8 30 -8 17 0 30 5 30 10 0 6 -13 9 -30 8 -16
-1 -30 -6 -30 -10z"/>
<path d="M1123 4273 c-21 -8 -15 -22 7 -16 11 3 20 9 20 14 0 10 -8 10 -27 2z"/>
<path d="M1180 4240 c0 -5 7 -10 15 -10 8 0 15 5 15 10 0 6 -7 10 -15 10 -8 0
-15 -4 -15 -10z"/>
<path d="M2918 4243 c6 -2 18 -2 25 0 6 3 1 5 -13 5 -14 0 -19 -2 -12 -5z"/>
<path d="M1010 4230 c0 -5 21 -18 46 -29 34 -16 51 -18 65 -10 27 14 24 20 -8
17 -16 -1 -39 2 -52 6 -18 6 -21 10 -10 17 10 6 6 9 -13 9 -16 0 -28 -4 -28
-10z"/>
<path d="M2543 4202 c-56 -27 -67 -42 -33 -42 11 0 23 -7 26 -15 4 -8 11 -15
18 -15 6 0 78 -33 160 -74 123 -61 154 -72 174 -65 20 8 23 15 20 46 -3 36 -7
40 -78 76 -41 21 -99 52 -127 68 -29 17 -57 28 -63 24 -5 -3 -10 1 -10 9 0 23
-27 19 -87 -12z"/>
<path d="M2080 4190 c0 -5 7 -10 16 -10 8 0 12 5 9 10 -3 6 -10 10 -16 10 -5
0 -9 -4 -9 -10z"/>
<path d="M3196 4177 c9 -30 9 -30 39 -15 l26 14 -36 11 c-34 11 -36 10 -29
-10z"/>
<path d="M2120 4170 c0 -5 6 -10 14 -10 8 0 18 5 21 10 3 6 -3 10 -14 10 -12
0 -21 -4 -21 -10z"/>
<path d="M3011 4176 c2 -2 18 -6 34 -10 22 -5 26 -4 15 4 -14 9 -59 15 -49 6z"/>
<path d="M1958 4163 c6 -2 18 -2 25 0 6 3 1 5 -13 5 -14 0 -19 -2 -12 -5z"/>
<path d="M3150 4130 c0 -5 5 -10 10 -10 6 0 10 5 10 10 0 6 -4 10 -10 10 -5 0
-10 -4 -10 -10z"/>
<path d="M1156 4115 c4 -8 12 -15 20 -15 20 0 17 7 -6 20 -16 9 -18 8 -14 -5z"/>
<path d="M1016 4101 c-5 -8 43 -35 51 -28 2 2 -8 12 -21 21 -14 8 -27 12 -30
7z"/>
<path d="M1866 4001 c-10 -11 -28 -22 -42 -25 -13 -4 -24 -11 -24 -16 0 -6 -7
-10 -15 -10 -8 0 -15 -5 -15 -11 0 -7 10 -9 25 -5 19 5 25 2 25 -9 0 -20 38
-34 70 -25 14 4 57 23 95 43 65 33 67 35 35 34 -27 -2 -37 3 -45 21 -13 29
-83 32 -109 3z"/>
<path d="M710 3999 c0 -5 5 -7 10 -4 6 3 10 8 10 11 0 2 -4 4 -10 4 -5 0 -10
-5 -10 -11z"/>
<path d="M2910 3970 c-8 -5 -25 -10 -37 -10 -12 0 -23 -3 -25 -7 -1 -5 -25
-18 -52 -31 -56 -26 -55 -28 42 -72 45 -20 58 -22 83 -13 24 10 31 9 36 -2 3
-10 20 -14 53 -14 26 1 52 -1 56 -4 5 -3 17 1 27 8 16 12 16 14 -7 29 -14 9
-32 16 -40 16 -7 0 -16 7 -20 15 -3 8 -10 15 -15 15 -15 0 -61 49 -61 65 0 17
-18 19 -40 5z"/>
<path d="M2310 3925 c0 -23 3 -25 48 -25 l47 1 -30 24 c-40 33 -65 33 -65 0z"/>
<path d="M1730 3925 c-7 -8 -21 -15 -31 -15 -11 0 -19 -4 -19 -10 0 -5 6 -10
14 -10 7 0 19 -7 26 -15 7 -8 17 -15 23 -15 5 0 3 8 -6 18 -22 24 -21 29 3 35
11 3 20 10 20 16 0 16 -15 14 -30 -4z"/>
<path d="M2230 3904 c0 -11 5 -14 16 -10 9 3 23 6 32 6 15 0 15 2 2 10 -23 15
-50 12 -50 -6z"/>
<path d="M3598 3903 c7 -3 16 -2 19 1 4 3 -2 6 -13 5 -11 0 -14 -3 -6 -6z"/>
<path d="M773 3863 c-12 -2 -27 -11 -35 -20 -11 -14 -10 -16 12 -10 14 3 43
12 65 21 38 14 38 15 10 14 -16 0 -40 -3 -52 -5z"/>
<path d="M1775 3850 c4 -6 11 -8 16 -5 14 9 11 15 -7 15 -8 0 -12 -5 -9 -10z"/>
<path d="M3678 3853 c6 -2 18 -2 25 0 6 3 1 5 -13 5 -14 0 -19 -2 -12 -5z"/>
<path d="M1392 3828 c2 -14 11 -24 23 -25 11 -2 14 0 8 3 -7 3 -13 14 -13 25
0 10 -5 19 -11 19 -6 0 -9 -10 -7 -22z"/>
<path d="M2323 3843 c9 -2 23 -2 30 0 6 3 -1 5 -18 5 -16 0 -22 -2 -12 -5z"/>
<path d="M690 3820 c-8 -5 -36 -18 -62 -29 -25 -11 -49 -24 -52 -29 -3 -5 17
-19 44 -32 33 -16 50 -30 50 -42 0 -10 -6 -18 -12 -18 -7 0 -31 -9 -53 -19
-22 -11 -70 -34 -107 -51 -38 -17 -68 -34 -68 -39 0 -4 30 -21 66 -36 l65 -28
43 22 c24 11 48 21 53 21 5 0 18 9 28 20 10 11 24 20 32 20 7 0 13 4 13 9 0 7
40 21 107 34 14 3 37 -4 58 -18 19 -13 55 -31 80 -40 26 -8 61 -23 78 -32 18
-10 35 -16 40 -15 4 1 7 -2 7 -8 0 -15 67 -12 74 3 5 10 7 10 12 0 3 -7 15
-13 25 -13 16 0 20 6 17 28 -2 21 -11 30 -38 38 -31 11 -35 10 -38 -7 -5 -26
-42 -25 -42 1 0 11 -4 20 -9 20 -5 0 -11 9 -13 21 -2 14 -25 33 -68 56 -36 20
-67 39 -70 43 -3 4 -30 19 -60 34 -30 15 -57 31 -60 35 -6 10 -106 61 -117 60
-4 0 -15 -4 -23 -9z"/>
<path d="M3650 3810 c-14 -11 -32 -20 -40 -20 -16 -1 -56 -28 -49 -33 19 -16
147 -67 177 -71 30 -5 32 -4 12 3 -19 7 -9 9 43 10 53 1 67 -2 67 -14 0 -14
-12 -19 -32 -16 -5 0 -8 -6 -8 -14 0 -19 -5 -20 64 14 43 21 54 30 41 35 -24
9 -27 8 -19 -6 4 -7 3 -8 -4 -4 -7 4 -12 14 -12 22 0 8 -4 12 -10 9 -5 -3 -10
-2 -10 2 0 5 -9 13 -19 18 -11 6 -50 27 -87 48 -38 20 -73 37 -79 37 -5 0 -21
-9 -35 -20z"/>
<path d="M3028 3798 c9 -9 15 -9 24 0 9 9 7 12 -12 12 -19 0 -21 -3 -12 -12z"/>
<path d="M1375 3780 c-3 -6 1 -7 9 -4 18 7 21 14 7 14 -6 0 -13 -4 -16 -10z"/>
<path d="M1900 3735 c-7 -8 -20 -15 -29 -15 -10 0 -25 -6 -34 -12 -15 -11 -6
-12 52 -10 38 2 85 -1 105 -6 20 -6 36 -9 36 -6 0 3 -71 43 -111 62 -3 1 -12
-4 -19 -13z"/>
<path d="M3096 3681 c-3 -5 -22 -16 -41 -26 -30 -14 -34 -19 -24 -31 12 -15
64 -42 104 -54 12 -4 38 3 64 17 24 13 51 23 60 23 23 1 -10 26 -74 56 -53 25
-80 30 -89 15z"/>
<path d="M3385 3672 c-16 -10 -31 -20 -33 -24 -2 -5 -11 -8 -20 -8 -12 0 -9
-8 13 -30 33 -35 85 -56 85 -36 0 16 22 26 56 26 13 0 24 4 24 9 0 5 8 12 18
14 9 2 6 3 -7 2 -35 -4 -51 4 -51 26 0 12 -7 19 -20 19 -11 0 -20 5 -20 10 0
13 -9 12 -45 -8z"/>
<path d="M4190 3668 c0 -4 -9 -8 -20 -8 -11 0 -20 -4 -20 -9 0 -5 -10 -11 -22
-13 -21 -3 -23 -9 -26 -80 -2 -43 0 -78 4 -78 19 0 80 27 95 41 10 10 18 41
22 87 5 66 4 71 -14 69 -10 -1 -19 -5 -19 -9z"/>
<path d="M1880 3662 c0 -4 14 -13 31 -19 26 -10 30 -10 25 3 -3 9 -6 18 -6 20
0 2 -11 4 -25 4 -14 0 -25 -4 -25 -8z"/>
<path d="M3753 3587 c-18 -12 -33 -27 -33 -33 0 -20 75 -47 111 -39 39 9 99
36 99 44 -1 12 -96 51 -120 51 -14 -1 -40 -11 -57 -23z"/>
<path d="M1470 3543 c-12 -8 -33 -18 -48 -22 -40 -11 -33 -29 25 -59 28 -15
82 -44 119 -64 38 -21 74 -38 81 -38 16 0 137 60 132 64 -11 10 -248 125 -266
129 -12 3 -31 -2 -43 -10z"/>
<path d="M1998 3523 c-27 -14 -48 -29 -48 -33 0 -11 77 -50 100 -50 13 0 47
12 76 27 l52 26 -41 19 c-23 11 -50 24 -59 29 -24 12 -27 12 -80 -18z"/>
<path d="M2480 3540 c-13 -8 -13 -10 2 -10 9 0 20 5 23 10 8 13 -5 13 -25 0z"/>
<path d="M2755 3530 c3 -5 13 -10 21 -10 8 0 14 5 14 10 0 6 -9 10 -21 10 -11
0 -17 -4 -14 -10z"/>
<path d="M1305 3490 c3 -5 11 -10 16 -10 6 0 7 5 4 10 -3 6 -11 10 -16 10 -6
0 -7 -4 -4 -10z"/>
<path d="M1229 3447 c7 -7 18 -7 33 0 20 9 20 10 -10 10 -22 0 -29 -4 -23 -10z"/>
<path d="M3128 3382 c-10 -2 -18 -12 -18 -24 0 -17 -6 -20 -47 -18 -27 2 -53
2 -60 1 -17 -1 -63 -49 -63 -64 1 -12 64 -57 81 -57 5 0 9 -9 9 -20 0 -15 7
-20 25 -20 14 0 24 -3 24 -7 -3 -19 2 -33 12 -33 6 0 9 9 6 20 -4 16 0 20 16
19 12 0 16 -3 10 -6 -7 -2 -13 -11 -13 -19 0 -15 36 5 87 49 13 12 27 16 35
11 10 -6 11 -5 1 8 -7 8 -31 23 -54 33 -34 16 -39 22 -34 42 3 14 1 23 -6 23
-8 0 -8 4 1 14 17 21 9 52 -12 48z"/>
<path d="M3160 3382 c0 -5 7 -9 15 -9 8 0 12 4 9 9 -3 4 -9 8 -15 8 -5 0 -9
-4 -9 -8z"/>
<path d="M2197 3350 c-33 -17 -65 -30 -73 -30 -8 0 -14 -4 -14 -10 0 -5 -9
-10 -20 -10 -11 0 -20 -4 -20 -9 0 -12 -76 -51 -99 -51 -10 0 -21 -7 -25 -15
-3 -9 0 -15 9 -15 7 0 21 -7 30 -16 26 -27 86 -26 141 2 26 13 58 24 71 24 24
0 63 -16 73 -30 6 -8 68 -30 87 -30 9 0 11 5 4 18 -6 9 -12 33 -16 53 -6 40
-18 53 -85 92 -25 15 -40 27 -34 27 5 0 19 7 30 15 31 23 3 16 -59 -15z"/>
<path d="M3050 3360 c0 -5 5 -10 10 -10 6 0 10 5 10 10 0 6 -4 10 -10 10 -5 0
-10 -4 -10 -10z"/>
<path d="M3215 3360 c-3 -5 -15 -10 -26 -10 -20 0 -26 -15 -10 -25 12 -7 73
29 64 38 -9 10 -21 9 -28 -3z"/>
<path d="M1351 3333 c4 -23 -3 -34 -18 -31 -13 2 -18 -4 -18 -22 0 -22 5 -25
37 -28 71 -6 104 39 53 72 -25 17 -56 22 -54 9z"/>
<path d="M1455 3289 c-10 -14 -1 -21 19 -13 9 3 13 10 10 15 -7 12 -21 11 -29
-2z"/>
<path d="M2385 3137 c32 -21 54 -27 61 -15 9 14 -15 28 -51 28 -28 0 -28 -1
-10 -13z"/>
<path d="M2516 3143 c-25 -6 -43 -24 -47 -47 -2 -10 -32 -32 -66 -50 l-63 -33
55 -26 c29 -15 65 -27 79 -27 29 0 76 19 76 32 0 4 9 8 20 8 11 0 20 5 20 10
0 6 9 10 20 10 11 0 20 5 20 10 0 6 9 10 20 10 11 0 20 5 20 10 0 6 9 10 20
10 11 0 20 7 20 15 0 14 -12 20 -34 16 -5 -1 -6 5 -3 12 10 26 -102 54 -157
40z"/>
<path d="M4058 3133 c7 -3 16 -2 19 1 4 3 -2 6 -13 5 -11 0 -14 -3 -6 -6z"/>
<path d="M1465 3118 c-33 -12 -55 -27 -55 -38 0 -4 41 -26 91 -49 83 -38 93
-41 108 -27 10 9 23 16 29 16 20 0 13 35 -9 50 -12 8 -27 20 -33 26 -36 34
-77 41 -131 22z"/>
<path d="M1929 2796 c0 -3 0 -39 -1 -78 l0 -73 43 -22 c24 -13 49 -27 55 -32
12 -10 24 48 24 115 0 30 -5 36 -52 61 -68 36 -68 36 -69 29z"/>
</g>
</svg>
